<svg width="29" height="28" viewBox="0 0 29 28" fill="none" xmlns="http://www.w3.org/2000/svg">
<g clip-path="url(#clip0_31_18)">
<path d="M24.9933 11.753C24.9933 19.7053 14.3244 26.5215 14.3244 26.5215C14.3244 26.5215 3.65552 19.7053 3.65552 11.753C3.65552 9.04135 4.77956 6.44074 6.78037 4.5233C8.78117 2.60586 11.4949 1.52866 14.3244 1.52866C17.154 1.52866 19.8677 2.60586 21.8685 4.5233C23.8693 6.44074 24.9933 9.04135 24.9933 11.753Z" stroke="black" stroke-opacity="0.78" stroke-width="3.34711" stroke-linecap="round" stroke-linejoin="round"/>
<path d="M14.3246 15.1612C16.2887 15.1612 17.8809 13.6353 17.8809 11.7531C17.8809 9.87084 16.2887 8.34497 14.3246 8.34497C12.3605 8.34497 10.7683 9.87084 10.7683 11.7531C10.7683 13.6353 12.3605 15.1612 14.3246 15.1612Z" stroke="black" stroke-opacity="0.78" stroke-width="3.34711" stroke-linecap="round" stroke-linejoin="round"/>
</g>
<defs>
<clipPath id="clip0_31_18">
<rect width="28.4504" height="27.265" fill="white" transform="translate(0.0992432 0.392639)"/>
</clipPath>
</defs>
</svg>
