<svg width="20" height="19" viewBox="0 0 20 19" fill="none" xmlns="http://www.w3.org/2000/svg">
<g clip-path="url(#clip0_45_10)">
<path d="M17.5631 7.78035C17.5631 13.0819 10.4505 17.626 10.4505 17.626C10.4505 17.626 3.33789 13.0819 3.33789 7.78035C3.33789 5.97257 4.08725 4.23884 5.42112 2.96054C6.755 1.68225 8.56411 0.964111 10.4505 0.964111C12.3369 0.964111 14.146 1.68225 15.4799 2.96054C16.8137 4.23884 17.5631 5.97257 17.5631 7.78035Z" stroke="black" stroke-opacity="0.78" stroke-width="2.23141" stroke-linecap="round" stroke-linejoin="round"/>
<path d="M10.4506 10.0522C11.76 10.0522 12.8214 9.03497 12.8214 7.78014C12.8214 6.5253 11.76 5.50806 10.4506 5.50806C9.14119 5.50806 8.07971 6.5253 8.07971 7.78014C8.07971 9.03497 9.14119 10.0522 10.4506 10.0522Z" stroke="black" stroke-opacity="0.78" stroke-width="2.23141" stroke-linecap="round" stroke-linejoin="round"/>
</g>
<defs>
<clipPath id="clip0_45_10">
<rect width="18.9669" height="18.1766" fill="white" transform="translate(0.967041 0.206543)"/>
</clipPath>
</defs>
</svg>
